<svg width="34" height="34" viewBox="0 0 34 34" fill="none" xmlns="http://www.w3.org/2000/svg">
<path d="M10.4545 1C5.24181 1 1 5.24181 1 10.4545V23.5455C1 28.7582 5.24181 33 10.4545 33H23.5455C28.7582 33 33 28.7582 33 23.5455V10.4545C33 5.24181 28.7582 1 23.5455 1H10.4545ZM10.4545 2.45455H23.5455C27.972 2.45455 31.5455 6.02801 31.5455 10.4545V23.5455C31.5455 27.972 27.972 31.5455 23.5455 31.5455H10.4545C6.02801 31.5455 2.45455 27.972 2.45455 23.5455V10.4545C2.45455 6.02801 6.02801 2.45455 10.4545 2.45455ZM25.7273 6.81818C25.3415 6.81818 24.9715 6.97143 24.6988 7.24421C24.426 7.51699 24.2727 7.88696 24.2727 8.27273C24.2727 8.6585 24.426 9.02847 24.6988 9.30125C24.9715 9.57403 25.3415 9.72727 25.7273 9.72727C26.113 9.72727 26.483 9.57403 26.7558 9.30125C27.0286 9.02847 27.1818 8.6585 27.1818 8.27273C27.1818 7.88696 27.0286 7.51699 26.7558 7.24421C26.483 6.97143 26.113 6.81818 25.7273 6.81818ZM17 9C12.5903 9 9 12.5903 9 17C9 21.4097 12.5903 25 17 25C21.4097 25 25 21.4097 25 17C25 12.5903 21.4097 9 17 9ZM17 10.4545C20.6236 10.4545 23.5455 13.3764 23.5455 17C23.5455 20.6236 20.6236 23.5455 17 23.5455C13.3764 23.5455 10.4545 20.6236 10.4545 17C10.4545 13.3764 13.3764 10.4545 17 10.4545Z" fill="black" stroke="black"/>
</svg>
