<svg width="32" height="32" viewBox="0 0 32 32" fill="none" xmlns="http://www.w3.org/2000/svg">
<path d="M16 0C7.16364 0 0 7.16364 0 16C0 24.8364 7.16364 32 16 32C24.8364 32 32 24.8364 32 16C32 7.16364 24.8364 0 16 0ZM16 2.90909C23.2298 2.90909 29.0909 8.77018 29.0909 16C29.0909 23.2298 23.2298 29.0909 16 29.0909C8.77018 29.0909 2.90909 23.2298 2.90909 16C2.90909 8.77018 8.77018 2.90909 16 2.90909ZM22.5753 9.70028C22.2059 9.65767 21.7417 9.75893 21.223 9.94602C20.2754 10.2878 8.1627 15.4312 7.46307 15.7287C6.80052 16.0109 6.1726 16.3184 6.17188 16.7628C6.17188 17.0755 6.35732 17.2521 6.86932 17.4347C7.40168 17.6252 8.7442 18.0311 9.53693 18.25C10.3006 18.4602 11.169 18.277 11.6562 17.9744C12.1719 17.6537 18.1299 13.6673 18.5568 13.3182C18.9837 12.9691 19.3249 13.4172 18.9759 13.767C18.6268 14.1169 14.5368 18.0837 13.9972 18.6335C13.3426 19.3012 13.8079 19.9928 14.2472 20.2699C14.7483 20.5863 18.3559 23.0051 18.8991 23.3935C19.4424 23.7818 19.9924 23.9574 20.4972 23.9574C21.0019 23.9574 21.2676 23.2922 21.5185 22.5213C21.813 21.6188 23.1928 12.6197 23.3622 10.8466C23.4139 10.3091 23.2443 9.95189 22.9119 9.79261C22.8114 9.74443 22.6984 9.71449 22.5753 9.70028Z" fill="black"/>
</svg>
